<!-- <svg xmlns="http://www.w3.org/2000/svg" width="50" height="50" viewBox="0 0 24 24" fill="none"><path d="M19 0h-14c-2.761 0-5 2.239-5 5v14c0 2.761 2.239 5 5 5h14c2.762 0 5-2.239 5-5v-14c0-2.761-2.238-5-5-5zm-.139 9.237c.209 4.617-3.234 9.765-9.33 9.765-1.854 0-3.579-.543-5.032-1.475 1.742.205 3.48-.278 4.86-1.359-1.437-.027-2.649-.976-3.066-2.28.515.098 1.021.069 1.482-.056-1.579-.317-2.668-1.739-2.633-3.26.442.246.949.394 1.486.411-1.461-.977-1.875-2.907-1.016-4.383 1.619 1.986 4.038 3.293 6.766 3.43-.479-2.053 1.08-4.03 3.199-4.03.943 0 1.797.398 2.395 1.037.748-.147 1.451-.42 2.086-.796-.246.767-.766 1.41-1.443 1.816.664-.08 1.297-.256 1.885-.517-.439.656-.996 1.234-1.639 1.697z" fill="white"/></svg> -->

<svg
    xmlns="http://www.w3.org/2000/svg"
    width="50"
    height="50"
    viewBox="0 0 24 24"
    fill="none"
  >
  <!-- <path d="M0 0l115 115h15l12 27 108 108V0z" fill="white" />
  <path d="M128 109c-15-9-9-19-9-19 3-7 2-11 2-11-1-7 3-2 3-2 4 5 2 11 2 11-3 10 5 15 9 16" fill="white"
  /> -->
  <path fill="white" d="M115 115s4 2 5 0l14-14c3-2 6-3 8-3-8-11-15-24 2-41 5-5 10-7 16-7 1-2 3-7 12-11 0 0 5 3 7 16 4 2 8 5 12 9s7 8 9 12c14 3 17 7 17 7-4 8-9 11-11 11 0 6-2 11-7 16-16 16-30 10-41 2 0 3-1 7-5 11l-12 11c-1 1 1 5 1 5z" />
  </svg>